<?xml version="1.0"?><svg width="2500" height="2500" xmlns="http://www.w3.org/2000/svg">
 <title>spidersweb</title>
 <metadata id="metadata24113">image/svg+xmlspiderswebA very simple styalised spiders web. black and white outline.webthreadblack and whitespiderspiders webcobweb</metadata>
 <g>
  <title>Layer 1</title>
  <g id="layer1">
   <g id="g11256">
    <g id="g11136">
     <path fill="none" stroke="#1a1a1a" stroke-width="3" stroke-linecap="round" stroke-miterlimit="4" stroke-dashoffset="0" d="m1263.225586,1242.533447l1217.032959,0" id="path11098"/>
     <path fill="none" stroke="#1a1a1a" stroke-width="3" stroke-linecap="round" stroke-miterlimit="4" stroke-dashoffset="0" d="m1263.225586,1242.533447l1175.563965,-314.991394" id="path11100"/>
     <path fill="none" stroke="#1a1a1a" stroke-width="3" stroke-linecap="round" stroke-miterlimit="4" stroke-dashoffset="0" d="m1263.225586,1242.533447l1053.981934,-608.516113" id="path11102"/>
     <path fill="none" stroke="#1a1a1a" stroke-width="3" stroke-linecap="round" stroke-miterlimit="4" stroke-dashoffset="0" d="m1263.225586,1242.533447l860.57251,-860.57196" id="path11104"/>
     <path fill="none" stroke="#1a1a1a" stroke-width="3" stroke-linecap="round" stroke-miterlimit="4" stroke-dashoffset="0" d="m1263.225586,1242.533447l608.516479,-1053.981659" id="path11106"/>
     <path fill="none" stroke="#1a1a1a" stroke-width="3" stroke-linecap="round" stroke-miterlimit="4" stroke-dashoffset="0" d="m1263.225586,1242.533447l314.991211,-1175.563728" id="path11108"/>
     <path fill="none" stroke="#1a1a1a" stroke-width="3" stroke-linecap="round" stroke-miterlimit="4" stroke-dashoffset="0" id="path11110" d="m2480.258545,1242.533447c-87.846924,-115.572021 -82.457764,-217.824341 -41.468994,-314.991394c-181.660889,-154.295349 -108.802002,-206.782654 -121.582031,-293.525269c-200.959961,-56.720642 -164.481689,-160.928558 -193.409424,-252.055878c-212.078857,12.36615 -217.075806,-99.516907 -252.05603,-193.409729c-114.725098,39.23291 -245.756592,-33.337189 -293.525269,-121.582054c-135.915039,90.432579 -245.942993,77.315666 -329.553955,-41.469231"/>
     <path fill="none" stroke="#1a1a1a" stroke-width="3" stroke-linecap="round" stroke-miterlimit="4" stroke-dashoffset="0" id="path11114" d="m1248.662598,1242.533447l0,-1217.033257"/>
     <path fill="none" stroke="#1a1a1a" stroke-width="3" stroke-linecap="round" stroke-miterlimit="4" stroke-dashoffset="0" id="path11120" d="m2337.215088,1243.374268c-77.703857,-102.227417 -72.936523,-192.673706 -36.681152,-278.621765c-160.685791,-136.47998 -96.239258,-182.906555 -107.543701,-259.634399c-177.756836,-50.17157 -145.490234,-142.347473 -171.077637,-222.952972c-187.591919,10.93869 -192.011963,-88.026215 -222.953369,-171.077881c-101.47876,34.702789 -217.381104,-29.488251 -259.634033,-107.543976c-120.22229,79.991089 -217.546143,68.388702 -291.503174,-36.68132"/>
     <path fill="none" stroke="#1a1a1a" stroke-width="3" stroke-linecap="round" stroke-miterlimit="4" stroke-dashoffset="0" id="path11122" d="m2187.765137,1244.252563c-67.107178,-88.285767 -62.98999,-166.396606 -31.678711,-240.623352c-138.771606,-117.866943 -83.114258,-157.961975 -92.877197,-224.22522c-153.51416,-43.329224 -125.648315,-122.934021 -147.745972,-192.546326c-162.007813,9.446655 -165.825195,-76.020874 -192.546997,-147.746307c-87.639038,29.970001 -187.734497,-25.466522 -224.224976,-92.877136c-103.826294,69.081696 -187.877075,59.061737 -251.747681,-31.678986"/>
     <path fill="none" stroke="#1a1a1a" stroke-width="3" stroke-linecap="round" stroke-miterlimit="4" stroke-dashoffset="0" id="path11124" d="m2046.393311,1245.083862c-57.082642,-75.097656 -53.580566,-141.540405 -26.946655,-204.678345c-118.041504,-100.259644 -70.69873,-134.365784 -79.00293,-190.730286c-130.582031,-36.856689 -106.878662,-104.569885 -125.675659,-163.783997c-137.806885,8.035767 -141.053955,-64.664917 -163.783691,-125.675659c-74.547607,25.493042 -159.690552,-21.662292 -190.730103,-79.003296c-88.31665,58.762512 -159.811768,50.239136 -214.141479,-26.946136"/>
     <path fill="none" stroke="#1a1a1a" stroke-width="3" stroke-linecap="round" stroke-miterlimit="4" stroke-dashoffset="0" d="m1821.660889,1245.914673c-41.112061,-54.084839 -38.589966,-101.936523 -19.407471,-147.408569c-85.016113,-72.206543 -50.918823,-96.76947 -56.899658,-137.362244c-94.047974,-26.543823 -76.976318,-75.310974 -90.51416,-117.955933c-99.251587,5.787537 -101.590088,-46.571716 -117.960693,-90.511414c-53.690552,18.360535 -115.012451,-15.600952 -137.36792,-56.897156c-63.6073,42.320129 -115.099731,36.181824 -154.228882,-19.406921" id="path11134"/>
     <path fill="none" stroke="#1a1a1a" stroke-width="3" stroke-linecap="round" stroke-miterlimit="4" stroke-dashoffset="0" id="path11126" d="m1919.903931,1245.914673c-48.119385,-63.305786 -45.167358,-119.316895 -22.715332,-172.541504c-99.507202,-84.517578 -59.597778,-113.268127 -66.5979,-160.782715c-110.078613,-31.069092 -90.097168,-88.151184 -105.942505,-138.067322c-116.168823,6.774048 -118.906128,-54.512146 -138.067017,-105.943481c-62.842041,21.491028 -134.616211,-18.260986 -160.781982,-66.598572c-74.449219,49.535706 -134.718384,42.351563 -180.517334,-22.71521"/>
     <path fill="none" stroke="#1a1a1a" stroke-width="3" stroke-linecap="round" stroke-miterlimit="4" stroke-dashoffset="0" id="path11130" d="m1690.525757,1247.175537c-31.848389,-41.899414 -29.894409,-78.970459 -15.034302,-114.197144c-65.859741,-55.938477 -39.445313,-74.967285 -44.078857,-106.415161c-72.856079,-20.563049 -59.631104,-58.343079 -70.118774,-91.380737c-76.887085,4.483337 -78.698853,-36.078735 -91.380615,-70.118958c-41.592529,14.223267 -89.096924,-12.085938 -106.415161,-44.078857c-49.274902,32.785828 -89.164429,28.029968 -119.476929,-15.033936"/>
     <path fill="none" stroke="#1a1a1a" stroke-width="3" stroke-linecap="round" stroke-miterlimit="4" stroke-dashoffset="0" id="path11132" d="m1593.027832,1247.747925c-24.934937,-32.804077 -23.405029,-61.827881 -11.770874,-89.407959c-51.563232,-43.795654 -30.882568,-58.693848 -34.51001,-83.315186c-57.041138,-16.100098 -46.687134,-45.678345 -54.897949,-71.54425c-60.196899,3.510315 -61.615356,-28.246765 -71.544434,-54.897827c-32.563721,11.135376 -69.756104,-9.462646 -83.314941,-34.510193c-38.578491,25.66864 -69.809204,21.945496 -93.541504,-11.77063"/>
     <path fill="none" stroke="#1a1a1a" stroke-width="3" stroke-linecap="round" stroke-miterlimit="4" stroke-dashoffset="0" d="m1464.156006,1248.505981c-15.796631,-20.782349 -14.827393,-39.169067 -7.457031,-56.641846c-32.666138,-27.744873 -19.564697,-37.183228 -21.862793,-52.78125c-36.136719,-10.199707 -29.577026,-28.938354 -34.778809,-45.324951c-38.136108,2.223877 -39.034546,-17.895386 -45.324585,-34.778687c-20.630005,7.054565 -44.191895,-5.994263 -52.781616,-21.862549c-24.440308,16.261108 -44.225464,13.90271 -59.260376,-7.457397" id="path11118"/>
    </g>
    <g id="g11154">
     <path fill="none" stroke="#1a1a1a" stroke-width="3" stroke-linecap="round" stroke-miterlimit="4" stroke-dashoffset="0" id="path11156" d="m1241.533203,1247.602661l-1217.033264,0"/>
     <path fill="none" stroke="#1a1a1a" stroke-width="3" stroke-linecap="round" stroke-miterlimit="4" stroke-dashoffset="0" id="path11158" d="m1241.533203,1247.602661l-1175.563469,-314.991333"/>
     <path fill="none" stroke="#1a1a1a" stroke-width="3" stroke-linecap="round" stroke-miterlimit="4" stroke-dashoffset="0" id="path11160" d="m1241.533203,1247.602661l-1053.981689,-608.516113"/>
     <path fill="none" stroke="#1a1a1a" stroke-width="3" stroke-linecap="round" stroke-miterlimit="4" stroke-dashoffset="0" id="path11162" d="m1241.533203,1247.602661l-860.57254,-860.57193"/>
     <path fill="none" stroke="#1a1a1a" stroke-width="3" stroke-linecap="round" stroke-miterlimit="4" stroke-dashoffset="0" id="path11164" d="m1241.533203,1247.602661l-608.516357,-1053.981644"/>
     <path fill="none" stroke="#1a1a1a" stroke-width="3" stroke-linecap="round" stroke-miterlimit="4" stroke-dashoffset="0" id="path11166" d="m1241.533203,1247.602661l-314.99115,-1175.563698"/>
     <path fill="none" stroke="#1a1a1a" stroke-width="3" stroke-linecap="round" stroke-miterlimit="4" stroke-dashoffset="0" d="m24.499939,1247.602661c87.847519,-115.571899 82.457893,-217.824341 41.469231,-314.991333c181.660942,-154.29541 108.802635,-206.782715 121.582344,-293.52533c200.959839,-56.720642 164.481476,-160.928497 193.409149,-252.055878c212.078949,12.36618 217.076019,-99.516876 252.056183,-193.409714c114.725037,39.23291 245.75647,-33.337189 293.524902,-121.582039c135.915527,90.432579 245.943115,77.31562 329.554321,-41.469238" id="path11168"/>
     <path fill="none" stroke="#1a1a1a" stroke-width="3" stroke-linecap="round" stroke-miterlimit="4" stroke-dashoffset="0" d="m1256.096069,1247.602661l0,-1217.03323" id="path11170"/>
     <path fill="none" stroke="#1a1a1a" stroke-width="3" stroke-linecap="round" stroke-miterlimit="4" stroke-dashoffset="0" d="m167.543701,1248.443481c77.704391,-102.227417 72.937195,-192.673584 36.680954,-278.621704c160.686172,-136.47998 96.239731,-182.906555 107.544052,-259.634399c177.756866,-50.171692 145.490143,-142.347473 171.07782,-222.953003c187.591644,10.93869 192.011871,-88.026215 222.952972,-171.077881c101.478882,34.702789 217.380859,-29.48819 259.634155,-107.543976c120.222229,79.991058 217.546204,68.388733 291.502869,-36.68132" id="path11172"/>
     <path fill="none" stroke="#1a1a1a" stroke-width="3" stroke-linecap="round" stroke-miterlimit="4" stroke-dashoffset="0" d="m316.993896,1249.321655c67.106995,-88.285645 62.989899,-166.396606 31.67865,-240.623169c138.771393,-117.866943 83.114441,-157.961975 92.876862,-224.22522c153.514313,-43.329346 125.648468,-122.934021 147.746429,-192.546265c162.007813,9.446594 165.825195,-76.020996 192.546814,-147.746399c87.638672,29.970001 187.734192,-25.466522 224.224731,-92.877197c103.826294,69.081757 187.877319,59.061768 251.747925,-31.678925" id="path11174"/>
     <path fill="none" stroke="#1a1a1a" stroke-width="3" stroke-linecap="round" stroke-miterlimit="4" stroke-dashoffset="0" d="m458.365845,1250.153198c57.082581,-75.097778 53.580444,-141.540527 26.946259,-204.678589c118.041595,-100.259583 70.698944,-134.365601 79.003082,-190.730103c130.581787,-36.856812 106.878479,-104.569885 125.675476,-163.783997c137.807007,8.035767 141.054199,-64.665039 163.783875,-125.67572c74.547241,25.493164 159.690308,-21.662292 190.72998,-79.003296c88.316528,58.762573 159.811646,50.239197 214.141724,-26.946106" id="path11176"/>
     <path fill="none" stroke="#1a1a1a" stroke-width="3" stroke-linecap="round" stroke-miterlimit="4" stroke-dashoffset="0" id="path11178" d="m683.097961,1250.983765c41.112183,-54.084717 38.589722,-101.936401 19.407349,-147.408447c85.016479,-72.206543 50.918762,-96.769348 56.899719,-137.362244c94.047852,-26.543762 76.976135,-75.311035 90.514221,-117.955994c99.251465,5.787598 101.590027,-46.571716 117.960571,-90.511353c53.690735,18.360535 115.012512,-15.600952 137.367737,-56.897156c63.607666,42.32019 115.099854,36.181885 154.229248,-19.406982"/>
     <path fill="none" stroke="#1a1a1a" stroke-width="3" stroke-linecap="round" stroke-miterlimit="4" stroke-dashoffset="0" d="m584.854858,1250.983765c48.119934,-63.305664 45.167725,-119.316895 22.715454,-172.541382c99.507202,-84.517639 59.597778,-113.268127 66.598083,-160.782654c110.078491,-31.069214 90.096863,-88.151184 105.9422,-138.067444c116.168701,6.77417 118.906067,-54.512024 138.066956,-105.943481c62.84198,21.491028 134.61615,-18.260925 160.782043,-66.598511c74.449463,49.535706 134.718506,42.351501 180.517212,-22.715332" id="path11180"/>
     <path fill="none" stroke="#1a1a1a" stroke-width="3" stroke-linecap="round" stroke-miterlimit="4" stroke-dashoffset="0" d="m814.233154,1252.244873c31.848206,-41.899414 29.894348,-78.970825 15.034363,-114.197266c65.859619,-55.938477 39.44519,-74.967285 44.078552,-106.415283c72.856262,-20.562988 59.631592,-58.342896 70.118958,-91.380493c76.887207,4.483215 78.698669,-36.078796 91.380676,-70.11908c41.592407,14.223206 89.096802,-12.085938 106.414917,-44.078796c49.275024,32.785706 89.164795,28.029846 119.476929,-15.033936" id="path11182"/>
     <path fill="none" stroke="#1a1a1a" stroke-width="3" stroke-linecap="round" stroke-miterlimit="4" stroke-dashoffset="0" d="m911.730896,1252.817261c24.93512,-32.804321 23.405029,-61.827881 11.770691,-89.407959c51.563293,-43.795654 30.882813,-58.69397 34.510193,-83.31543c57.041199,-16.099854 46.687073,-45.678101 54.897888,-71.544067c60.197144,3.510376 61.615845,-28.246826 71.544434,-54.897888c32.563843,11.135376 69.756226,-9.462708 83.315063,-34.510193c38.578613,25.668579 69.80896,21.945435 93.541626,-11.770691" id="path11184"/>
     <path fill="none" stroke="#1a1a1a" stroke-width="3" stroke-linecap="round" stroke-miterlimit="4" stroke-dashoffset="0" id="path11186" d="m1040.602783,1253.575073c15.796753,-20.782349 14.827637,-39.168823 7.457031,-56.641724c32.666138,-27.744873 19.564697,-37.183228 21.862793,-52.781128c36.136597,-10.199829 29.577271,-28.938354 34.778931,-45.325073c38.135742,2.223877 39.034424,-17.895508 45.324463,-34.778687c20.630127,7.054443 44.192139,-5.994263 52.781982,-21.862549c24.440063,16.261108 44.225098,13.90271 59.260254,-7.457397"/>
    </g>
    <g id="g11188">
     <path fill="none" stroke="#1a1a1a" stroke-width="3" stroke-linecap="round" stroke-miterlimit="4" stroke-dashoffset="0" d="m1241.533203,1246.640869l-1217.033264,0" id="path11190"/>
     <path fill="none" stroke="#1a1a1a" stroke-width="3" stroke-linecap="round" stroke-miterlimit="4" stroke-dashoffset="0" d="m1241.533203,1246.640869l-1175.563469,314.991455" id="path11192"/>
     <path fill="none" stroke="#1a1a1a" stroke-width="3" stroke-linecap="round" stroke-miterlimit="4" stroke-dashoffset="0" d="m1241.533203,1246.640869l-1053.981689,608.516235" id="path11194"/>
     <path fill="none" stroke="#1a1a1a" stroke-width="3" stroke-linecap="round" stroke-miterlimit="4" stroke-dashoffset="0" d="m1241.533203,1246.640869l-860.57254,860.571777" id="path11196"/>
     <path fill="none" stroke="#1a1a1a" stroke-width="3" stroke-linecap="round" stroke-miterlimit="4" stroke-dashoffset="0" d="m1241.533203,1246.640869l-608.516357,1053.981689" id="path11198"/>
     <path fill="none" stroke="#1a1a1a" stroke-width="3" stroke-linecap="round" stroke-miterlimit="4" stroke-dashoffset="0" d="m1241.533203,1246.640869l-314.99115,1175.563721" id="path11200"/>
     <path fill="none" stroke="#1a1a1a" stroke-width="3" stroke-linecap="round" stroke-miterlimit="4" stroke-dashoffset="0" id="path11202" d="m24.499939,1246.640869c87.847519,115.572021 82.457893,217.824463 41.469231,314.991455c181.660942,154.29541 108.802635,206.782593 121.582344,293.525269c200.959839,56.720703 164.481476,160.928589 193.409149,252.055542c212.078949,-12.365479 217.076019,99.517334 252.056183,193.409668c114.725037,-39.232178 245.75647,33.337891 293.524902,121.582275c135.915527,-90.432373 245.943115,-77.315674 329.554321,41.469238"/>
     <path fill="none" stroke="#1a1a1a" stroke-width="3" stroke-linecap="round" stroke-miterlimit="4" stroke-dashoffset="0" id="path11204" d="m1256.096069,1246.640869l0,1217.033447"/>
     <path fill="none" stroke="#1a1a1a" stroke-width="3" stroke-linecap="round" stroke-miterlimit="4" stroke-dashoffset="0" id="path11206" d="m167.543701,1245.800049c77.704391,102.227539 72.937195,192.673706 36.680954,278.621826c160.686172,136.480103 96.239731,182.906616 107.544052,259.634277c177.756866,50.171753 145.490143,142.347534 171.07782,222.953125c187.591644,-10.938721 192.011871,88.026123 222.952972,171.077881c101.478882,-34.702881 217.380859,29.488037 259.634155,107.544189c120.222229,-79.991211 217.546204,-68.388916 291.502869,36.681152"/>
     <path fill="none" stroke="#1a1a1a" stroke-width="3" stroke-linecap="round" stroke-miterlimit="4" stroke-dashoffset="0" id="path11208" d="m316.993896,1244.921875c67.106995,88.285767 62.989899,166.396729 31.67865,240.623291c138.771393,117.866943 83.114441,157.961914 92.876862,224.22522c153.514313,43.329224 125.648468,122.93396 147.746429,192.546387c162.007813,-9.446655 165.825195,76.020874 192.546814,147.746216c87.638672,-29.969849 187.734192,25.466797 224.224731,92.877197c103.826294,-69.081787 187.877319,-59.062256 251.747925,31.679199"/>
     <path fill="none" stroke="#1a1a1a" stroke-width="3" stroke-linecap="round" stroke-miterlimit="4" stroke-dashoffset="0" id="path11210" d="m458.365845,1244.090576c57.082581,75.097656 53.580444,141.540283 26.946259,204.678467c118.041595,100.259521 70.698944,134.365723 79.003082,190.730225c130.581787,36.856567 106.878479,104.569824 125.675476,163.783813c137.807007,-8.035889 141.054199,64.665039 163.783875,125.675781c74.547241,-25.493164 159.690308,21.662354 190.72998,79.003174c88.316528,-58.762451 159.811646,-50.239014 214.141724,26.946167"/>
     <path fill="none" stroke="#1a1a1a" stroke-width="3" stroke-linecap="round" stroke-miterlimit="4" stroke-dashoffset="0" d="m683.097961,1243.259888c41.112183,54.084717 38.589722,101.936401 19.407349,147.408447c85.016479,72.206665 50.918762,96.769287 56.899719,137.362183c94.047852,26.543823 76.976135,75.311035 90.514221,117.956055c99.251465,-5.787598 101.590027,46.571655 117.960571,90.511353c53.690735,-18.360474 115.012512,15.600952 137.367737,56.897095c63.607666,-42.320068 115.099854,-36.181763 154.229248,19.406982" id="path11212"/>
     <path fill="none" stroke="#1a1a1a" stroke-width="3" stroke-linecap="round" stroke-miterlimit="4" stroke-dashoffset="0" id="path11214" d="m584.854858,1243.259888c48.119934,63.305664 45.167725,119.316772 22.715454,172.541382c99.507202,84.517456 59.597778,113.268066 66.598083,160.782593c110.078491,31.069214 90.096863,88.151123 105.9422,138.067505c116.168701,-6.77417 118.906067,54.512085 138.066956,105.943359c62.84198,-21.490967 134.61615,18.261108 160.782043,66.598511c74.449463,-49.535522 134.718506,-42.35144 180.517212,22.715454"/>
     <path fill="none" stroke="#1a1a1a" stroke-width="3" stroke-linecap="round" stroke-miterlimit="4" stroke-dashoffset="0" id="path11216" d="m814.233154,1241.998657c31.848206,41.899536 29.894348,78.970825 15.034363,114.197388c65.859619,55.938354 39.44519,74.967407 44.078552,106.415161c72.856262,20.56311 59.631592,58.343018 70.118958,91.380737c76.887207,-4.483521 78.698669,36.078613 91.380676,70.119141c41.592407,-14.223389 89.096802,12.085693 106.414917,44.078735c49.275024,-32.785889 89.164795,-28.030151 119.476929,15.033691"/>
     <path fill="none" stroke="#1a1a1a" stroke-width="3" stroke-linecap="round" stroke-miterlimit="4" stroke-dashoffset="0" id="path11218" d="m911.730896,1241.426392c24.93512,32.804199 23.405029,61.827759 11.770691,89.407959c51.563293,43.795654 30.882813,58.693848 34.510193,83.31543c57.041199,16.099854 46.687073,45.678101 54.897888,71.544067c60.197144,-3.510376 61.615845,28.246826 71.544434,54.897949c32.563843,-11.13562 69.756226,9.462524 83.315063,34.510254c38.578613,-25.668701 69.80896,-21.945557 93.541626,11.770508"/>
     <path fill="none" stroke="#1a1a1a" stroke-width="3" stroke-linecap="round" stroke-miterlimit="4" stroke-dashoffset="0" d="m1040.602783,1240.668579c15.796753,20.782104 14.827637,39.168823 7.457031,56.641724c32.666138,27.744873 19.564697,37.183228 21.862793,52.78125c36.136597,10.199829 29.577271,28.938232 34.778931,45.324951c38.135742,-2.223877 39.034424,17.895264 45.324463,34.778564c20.630127,-7.054321 44.192139,5.994263 52.781982,21.862793c24.440063,-16.261353 44.225098,-13.902954 59.260254,7.457275" id="path11220"/>
    </g>
    <g id="g11222">
     <path fill="none" stroke="#1a1a1a" stroke-width="3" stroke-linecap="round" stroke-miterlimit="4" stroke-dashoffset="0" id="path11224" d="m1263.399902,1251.704712l1217.033203,0"/>
     <path fill="none" stroke="#1a1a1a" stroke-width="3" stroke-linecap="round" stroke-miterlimit="4" stroke-dashoffset="0" id="path11226" d="m1263.399902,1251.704712l1175.563721,314.991577"/>
     <path fill="none" stroke="#1a1a1a" stroke-width="3" stroke-linecap="round" stroke-miterlimit="4" stroke-dashoffset="0" id="path11228" d="m1263.399902,1251.704712l1053.981445,608.516479"/>
     <path fill="none" stroke="#1a1a1a" stroke-width="3" stroke-linecap="round" stroke-miterlimit="4" stroke-dashoffset="0" id="path11230" d="m1263.399902,1251.704712l860.572266,860.571899"/>
     <path fill="none" stroke="#1a1a1a" stroke-width="3" stroke-linecap="round" stroke-miterlimit="4" stroke-dashoffset="0" id="path11232" d="m1263.399902,1251.704712l608.516357,1053.981812"/>
     <path fill="none" stroke="#1a1a1a" stroke-width="3" stroke-linecap="round" stroke-miterlimit="4" stroke-dashoffset="0" id="path11234" d="m1263.399902,1251.704712l314.991333,1175.564087"/>
     <path fill="none" stroke="#1a1a1a" stroke-width="3" stroke-linecap="round" stroke-miterlimit="4" stroke-dashoffset="0" d="m2480.433105,1251.704712c-87.847412,115.572266 -82.457764,217.824585 -41.469482,314.991577c-181.660889,154.29541 -108.802002,206.782593 -121.582031,293.525391c-200.959961,56.720703 -164.481445,160.928589 -193.409424,252.055664c-212.078613,-12.365723 -217.075684,99.516846 -252.055908,193.409668c-114.725098,-39.232422 -245.756714,33.337402 -293.525024,121.582275c-135.915283,-90.432617 -245.943115,-77.315674 -329.554077,41.469238" id="path11236"/>
     <path fill="none" stroke="#1a1a1a" stroke-width="3" stroke-linecap="round" stroke-miterlimit="4" stroke-dashoffset="0" d="m1248.836914,1251.704712l0,1217.033813" id="path11238"/>
     <path fill="none" stroke="#1a1a1a" stroke-width="3" stroke-linecap="round" stroke-miterlimit="4" stroke-dashoffset="0" d="m2337.389404,1250.864014c-77.703857,102.227417 -72.937012,192.673828 -36.680664,278.621948c-160.686523,136.47998 -96.23999,182.906616 -107.544189,259.634277c-177.756714,50.171509 -145.490479,142.347534 -171.077881,222.953125c-187.591675,-10.938721 -192.011841,88.026001 -222.953491,171.077759c-101.478394,-34.702881 -217.380859,29.488037 -259.633911,107.543701c-120.22229,-79.990723 -217.546021,-68.388428 -291.503052,36.681641" id="path11240"/>
     <path fill="none" stroke="#1a1a1a" stroke-width="3" stroke-linecap="round" stroke-miterlimit="4" stroke-dashoffset="0" d="m2187.939209,1249.98584c-67.106934,88.285767 -62.989746,166.396606 -31.678467,240.623291c-138.771606,117.867065 -83.114746,157.962036 -92.877197,224.22522c-153.51416,43.329346 -125.64856,122.93396 -147.745972,192.546387c-162.007935,-9.446655 -165.825439,76.020996 -192.547241,147.74646c-87.638794,-29.970215 -187.734131,25.466309 -224.224854,92.876953c-103.826172,-69.081787 -187.877197,-59.062012 -251.747681,31.679443" id="path11242"/>
     <path fill="none" stroke="#1a1a1a" stroke-width="3" stroke-linecap="round" stroke-miterlimit="4" stroke-dashoffset="0" d="m2046.567261,1249.154541c-57.082153,75.097656 -53.5802,141.540405 -26.946167,204.678467c-118.04187,100.259644 -70.698975,134.365723 -79.003174,190.730225c-130.582153,36.856689 -106.878906,104.569702 -125.675781,163.783936c-137.806641,-8.035645 -141.053711,64.665039 -163.783691,125.675781c-74.547363,-25.493164 -159.69043,21.662231 -190.72998,79.003296c-88.31665,-58.762817 -159.811646,-50.239136 -214.141357,26.945923" id="path11244"/>
     <path fill="none" stroke="#1a1a1a" stroke-width="3" stroke-linecap="round" stroke-miterlimit="4" stroke-dashoffset="0" id="path11246" d="m1821.835083,1248.32373c-41.112183,54.084839 -38.589844,101.936646 -19.407349,147.408569c-85.016113,72.206665 -50.919067,96.769653 -56.899658,137.362305c-94.048218,26.543701 -76.976563,75.311035 -90.514404,117.955933c-99.251465,-5.787476 -101.589966,46.571533 -117.960693,90.511353c-53.690552,-18.360352 -115.012207,15.60083 -137.367676,56.897217c-63.6073,-42.32019 -115.099976,-36.181763 -154.229004,19.40686"/>
     <path fill="none" stroke="#1a1a1a" stroke-width="3" stroke-linecap="round" stroke-miterlimit="4" stroke-dashoffset="0" d="m1920.078003,1248.32373c-48.119507,63.305786 -45.167358,119.317017 -22.71521,172.541504c-99.50708,84.517578 -59.597656,113.268188 -66.598267,160.782715c-110.078247,31.069214 -90.096924,88.151245 -105.942261,138.067383c-116.168823,-6.774048 -118.906006,54.511963 -138.066772,105.943481c-62.842041,-21.490967 -134.616333,18.261108 -160.782227,66.598389c-74.449219,-49.535522 -134.718384,-42.351318 -180.517212,22.715454" id="path11248"/>
     <path fill="none" stroke="#1a1a1a" stroke-width="3" stroke-linecap="round" stroke-miterlimit="4" stroke-dashoffset="0" d="m1690.699951,1247.062866c-31.848145,41.899292 -29.894287,78.970581 -15.034424,114.197144c-65.859741,55.938477 -39.445313,74.967407 -44.078613,106.415161c-72.856201,20.563232 -59.631348,58.34314 -70.118652,91.380737c-76.887451,-4.483154 -78.699097,36.078491 -91.380859,70.119019c-41.592651,-14.223145 -89.096924,12.085693 -106.415039,44.078857c-49.275146,-32.786011 -89.164551,-28.030029 -119.477173,15.033813" id="path11250"/>
     <path fill="none" stroke="#1a1a1a" stroke-width="3" stroke-linecap="round" stroke-miterlimit="4" stroke-dashoffset="0" d="m1593.202148,1246.490479c-24.934937,32.804199 -23.405273,61.827881 -11.770996,89.407959c-51.56311,43.795654 -30.882446,58.693848 -34.510132,83.315308c-57.041138,16.099976 -46.687012,45.678345 -54.897827,71.544189c-60.197021,-3.510376 -61.615356,28.246704 -71.544312,54.897705c-32.563843,-11.135376 -69.756348,9.462646 -83.315063,34.510254c-38.578369,-25.668457 -69.809082,-21.945435 -93.541504,11.77063" id="path11252"/>
     <path fill="none" stroke="#1a1a1a" stroke-width="3" stroke-linecap="round" stroke-miterlimit="4" stroke-dashoffset="0" id="path11254" d="m1464.330322,1245.732422c-15.796631,20.782349 -14.827637,39.169067 -7.457153,56.641846c-32.666016,27.744995 -19.564697,37.183228 -21.862915,52.78125c-36.136475,10.199707 -29.577026,28.938354 -34.778687,45.324951c-38.135986,-2.223755 -39.034546,17.895386 -45.324463,34.778687c-20.630005,-7.054443 -44.191895,5.994263 -52.781738,21.862671c-24.440308,-16.26123 -44.225464,-13.902832 -59.260376,7.457397"/>
    </g>
   </g>
  </g>
 </g>
</svg>